<svg width="24" height="24" viewBox="0 0 24 24" fill="none" xmlns="http://www.w3.org/2000/svg">
<path d="M11.235 2.374C10.867 2.526 10.538 2.856 9.87898 3.514C9.21998 4.174 8.88998 4.503 8.73898 4.87C8.63843 5.11269 8.58668 5.37281 8.58668 5.6355C8.58668 5.89819 8.63843 6.15831 8.73898 6.401C8.88998 6.769 9.21898 7.098 9.87898 7.757C10.537 8.416 10.867 8.746 11.235 8.897C11.7248 9.09979 12.2751 9.09979 12.765 8.897C13.133 8.746 13.462 8.417 14.121 7.757C14.781 7.098 15.109 6.769 15.261 6.401C15.4638 5.91116 15.4638 5.36084 15.261 4.871C15.109 4.503 14.781 4.174 14.121 3.515C13.462 2.855 13.133 2.526 12.765 2.374C12.2751 2.17122 11.7248 2.17122 11.235 2.374ZM4.86998 8.738C4.50298 8.89 4.17298 9.219 3.51498 9.878C2.85498 10.538 2.52598 10.867 2.37398 11.234C2.27343 11.4767 2.22168 11.7368 2.22168 11.9995C2.22168 12.2622 2.27343 12.5223 2.37398 12.765C2.52598 13.133 2.85598 13.462 3.51398 14.121C4.17398 14.78 4.50298 15.109 4.86998 15.261C5.11266 15.3615 5.37278 15.4133 5.63548 15.4133C5.89817 15.4133 6.15829 15.3615 6.40098 15.261C6.76898 15.109 7.09798 14.78 7.75698 14.121C8.41698 13.462 8.74498 13.133 8.89698 12.765C9.09976 12.2752 9.09976 11.7248 8.89698 11.235C8.74498 10.867 8.41698 10.537 7.75698 9.878C7.09798 9.219 6.76898 8.89 6.40098 8.738C5.91113 8.53522 5.35982 8.53522 4.86998 8.738ZM16.243 9.878C15.584 10.538 15.255 10.867 15.103 11.234C15.0024 11.4767 14.9507 11.7368 14.9507 11.9995C14.9507 12.2622 15.0024 12.5223 15.103 12.765C15.255 13.133 15.584 13.462 16.243 14.121C16.902 14.78 17.232 15.109 17.599 15.261C18.0888 15.4638 18.6391 15.4638 19.129 15.261C19.497 15.109 19.827 14.78 20.486 14.121C21.145 13.462 21.473 13.133 21.626 12.765C21.8288 12.2752 21.8288 11.7248 21.626 11.235C21.473 10.867 21.145 10.537 20.486 9.878C19.826 9.219 19.497 8.89 19.13 8.738C18.8873 8.63746 18.6272 8.58571 18.3645 8.58571C18.1018 8.58571 17.8417 8.63746 17.599 8.738C17.232 8.89 16.902 9.219 16.243 9.878ZM11.235 15.102C10.867 15.254 10.538 15.584 9.87898 16.242C9.21998 16.902 8.88998 17.231 8.73898 17.599C8.53619 18.0888 8.53619 18.6392 8.73898 19.129C8.88998 19.497 9.21898 19.826 9.87898 20.485C10.537 21.144 10.867 21.474 11.235 21.625C11.7248 21.8278 12.2751 21.8278 12.765 21.625C13.133 21.474 13.462 21.145 14.121 20.485C14.781 19.826 15.109 19.497 15.261 19.129C15.464 18.639 15.464 18.089 15.261 17.599C15.109 17.231 14.781 16.901 14.121 16.243C13.462 15.583 13.133 15.254 12.765 15.102C12.2751 14.8992 11.7248 14.8992 11.235 15.102Z" stroke="#383838" stroke-width="2" stroke-linecap="round" stroke-linejoin="round"/>
</svg>
