<svg width="189" height="43" viewBox="0 0 189 43" fill="none" xmlns="http://www.w3.org/2000/svg">
<mask id="mask0_4_765" style="mask-type:luminance" maskUnits="userSpaceOnUse" x="0" y="0" width="189" height="43">
<path d="M188.877 0H0V43H188.877V0Z" fill="white"/>
</mask>
<g mask="url(#mask0_4_765)">
<path d="M20.5635 9.86469L20.5183 30.2675C20.6088 36.2522 15.8622 40.6011 10.2468 41.4788C4.48064 42.3914 -0.296006 38.3419 0.000337301 32.417V10.5729C-0.0791752 9.19295 0.130157 7.81161 0.615133 6.51601C1.10011 5.2204 1.8502 4.03864 2.81812 3.04523C3.78602 2.05185 4.95075 1.26837 6.23883 0.744234C7.52691 0.220099 8.91039 -0.0333299 10.302 -6.68918e-05C15.9175 -6.68918e-05 20.7544 3.98972 20.5635 9.86469ZM6.37924 10.3934V31.644C6.37924 34.6812 7.75046 36.1325 10.2669 35.8333C12.7833 35.534 14.1696 33.7835 14.1746 30.8461C14.1746 23.9438 14.1863 17.043 14.2097 10.144C14.2097 7.18655 12.8335 5.61557 10.3071 5.65547C7.7806 5.69536 6.38427 7.35612 6.37924 10.3934Z" fill="white"/>
<path d="M31.3169 33.0704C36.0083 32.6564 38.3488 32.4669 43.0452 32.1279C43.0452 34.1876 43.0452 35.2149 43.0452 37.2746C36.8269 37.7934 30.6156 38.4085 24.4106 39.1199C24.4106 37.1799 24.4106 36.2124 24.4106 34.2724C28.248 24.7235 32.1792 15.2211 36.2041 5.76524C31.7539 5.83008 29.5289 5.86498 25.0787 5.9398C25.0787 3.78531 25.0787 2.70806 25.0787 0.54858L43.1255 0.523643V5.14683C39.0873 14.4131 35.151 23.721 31.3169 33.0704Z" fill="white"/>
<path d="M61.64 35.9979C61.0926 32.8061 60.8164 31.2051 60.2738 28.0183C57.4511 28.138 56.0447 28.2028 53.242 28.3525C52.6795 31.649 52.3983 33.3047 51.8306 36.6212C49.2791 36.8008 48.0032 36.8955 45.4517 37.12C47.8727 24.9013 50.3288 12.6941 52.8201 0.498657H60.9419C63.3228 12.2286 65.7253 23.9553 68.1496 35.6786C65.5428 35.7984 64.242 35.8632 61.64 35.9979ZM54.106 23.3602C56.2507 23.2704 57.3206 23.2255 59.4653 23.1507C58.6113 18.1635 57.7626 13.1762 56.9186 8.18899H56.7378C55.8438 13.2394 54.9581 18.2965 54.0809 23.3602H54.106Z" fill="white"/>
<path d="M81.4899 20.5624L78.5415 20.6023C78.5415 25.5097 78.5415 30.4189 78.5415 35.3297C75.985 35.3993 74.7041 35.4392 72.1476 35.529L72.1878 0.498689H81.3945C86.824 0.204441 92.2034 3.3115 91.9775 9.2513V11.7449C91.9775 15.4105 90.4104 17.979 87.4569 19.3854C89.4057 24.6419 91.3529 29.8952 93.2984 35.1451C90.5962 35.1451 89.2452 35.1451 86.5428 35.195C84.8551 30.3141 83.1708 25.4366 81.4899 20.5624ZM78.5465 15.7247L81.1332 15.6998C84.2072 15.6699 85.5935 14.3233 85.5935 11.4008C85.5935 10.6876 85.5935 10.3285 85.5935 9.61537C85.5935 6.69285 84.2122 5.35627 81.1433 5.36625H78.5566C78.5566 9.51563 78.5516 11.5853 78.5465 15.7247Z" fill="white"/>
<path d="M119.598 35.6387C116.875 35.5292 115.509 35.4793 112.787 35.3995C110.694 30.2825 108.593 25.1672 106.483 20.0537L103.716 24.4873C103.716 28.7713 103.716 30.911 103.716 35.195C101.159 35.1601 99.8785 35.1451 97.3218 35.1351C97.3218 23.5846 97.3218 12.0375 97.3218 0.493724H103.701C103.701 5.32137 103.701 10.1424 103.701 14.9567H103.821C106.775 10.1391 109.718 5.31805 112.651 0.493724H119.327C116.457 5.11857 113.584 9.73176 110.707 14.3333C113.688 21.4285 116.651 28.5303 119.598 35.6387Z" fill="white"/>
<path d="M132.22 0.498672C137.865 0.209411 142.647 3.87005 142.411 9.74502V10.4233C142.411 14.4879 141.045 16.8369 137.679 17.7046V17.8094C141.652 18.9764 143.345 21.7742 143.36 26.5769C143.36 27.0757 143.36 27.3301 143.36 27.8287C143.692 33.8883 138.337 37.0202 132.787 36.3071C129.03 36.0727 127.147 35.9679 123.385 35.8083L123.319 0.498672H132.22ZM129.733 15.211L131.717 15.2609C134.786 15.3357 136.047 14.039 136.037 11.0018V9.8298C136.037 6.8973 134.761 5.54576 132.019 5.51583H129.733V15.211ZM129.773 31.1403L132.541 31.2849C135.615 31.4495 136.996 30.1428 136.986 27.1056V25.1108C136.986 21.9188 135.59 20.4178 132.22 20.2981L129.748 20.2183C129.753 24.5871 129.763 26.7764 129.773 31.1502V31.1403Z" fill="#D32F27"/>
<path d="M154.792 5.79511C154.792 10.0442 154.792 12.1688 154.822 16.4179C158.549 16.5775 160.412 16.6623 164.139 16.8468C164.139 19.0014 164.139 20.0836 164.139 22.2381C160.412 21.9986 158.549 21.8839 154.822 21.6794C154.822 26.1679 154.822 28.3724 154.852 32.836C159.468 33.2299 161.778 33.4444 166.404 33.9132V39.3443C160.448 38.6427 154.479 38.0294 148.498 37.5039C148.465 25.1755 148.428 12.8504 148.388 0.528577L166.314 0.553513C166.314 2.72795 166.314 3.81018 166.314 5.98462C161.733 5.89984 159.408 5.86492 154.792 5.79511Z" fill="#D32F27"/>
<path d="M182.085 6.41352L182.116 41.394C179.58 41.0299 178.309 40.8503 175.767 40.5163C175.767 29.1022 175.751 17.6897 175.716 6.27886C172.999 6.21902 171.638 6.19408 168.921 6.1442C168.921 3.90992 168.921 2.79278 168.921 0.558496L188.856 0.598395V6.58308L182.085 6.41352Z" fill="#D32F27"/>
</g>
</svg>
